# xmcd CD database file
#
# Track frame offsets:
#	150
#	19776
#	46974
#	71333
#	96482
#	116069
#	143178
#	167250
#	186907
#	206713
#	226844
#	242268
#	257573
#
# Disc length: 3725 seconds
#
# Revision: 0
# Processed by: cddbd v1.5.2PL0 Copyright (c) Steve Scherf et al.
# Submitted via: CDex 1.70beta2
#
DISCID=aa0e8b0d
DTITLE=MALENE MORTENSEN - AGONY and ECSTASY
DYEAR=2009
DGENRE=Jazz
TTITLE0=Enigma
TTITLE1=Into Your Heart
TTITLE2=Tools And Rules
TTITLE3=The Light Up Ahead
TTITLE4=Tidal Wave
TTITLE5=Black Amy
TTITLE6=Eternal Three
TTITLE7=Valentine
TTITLE8=Seeds Of Summer
TTITLE9=Transparent
TTITLE10=Good At Goodbyes
TTITLE11=Final Hours
TTITLE12=Kings Town
EXTD=YEAR: 2009
EXTT0=
EXTT1=
EXTT2=
EXTT3=
EXTT4=
EXTT5=
EXTT6=
EXTT7=
EXTT8=
EXTT9=
EXTT10=
EXTT11=
EXTT12=
PLAYORDER=
